<svg width="60" height="60" viewBox="0 0 60 60" fill="none" xmlns="http://www.w3.org/2000/svg">
<path d="M30 60C46.5685 60 60 46.5685 60 30C60 13.4315 46.5685 0 30 0C13.4315 0 0 13.4315 0 30C0 46.5685 13.4315 60 30 60Z" fill="#2A2A2A"/>
<path d="M12.1127 19.6612C12.4727 19.6612 12.8364 19.6612 13.1964 19.6612C13.2564 19.6612 13.2789 19.6762 13.2752 19.74C13.2714 19.8112 13.2714 19.8787 13.3089 19.95C13.3389 20.0025 13.2827 20.085 13.3539 20.1337C13.3352 20.2462 13.3689 20.3587 13.3952 20.4637C13.4439 20.6512 13.4364 20.8462 13.5114 21.03C13.5302 21.075 13.5114 21.1387 13.5189 21.1912C13.5264 21.24 13.5452 21.2887 13.5564 21.3375C13.6014 21.5362 13.6127 21.7462 13.6764 21.9412C13.7139 22.05 13.7064 22.1737 13.7214 22.29C13.7327 22.3612 13.7402 22.4325 13.7627 22.4962C13.8264 22.6725 13.8114 22.8637 13.8752 23.0437C13.9052 23.13 13.9014 23.235 13.9202 23.3325C13.9577 23.5087 13.9539 23.7 14.0139 23.8687C14.0552 23.9812 14.0289 24.0975 14.0814 24.21C14.1302 24.3112 14.0964 24.4462 14.1339 24.555C14.1939 24.735 14.1827 24.9225 14.2464 25.1025C14.2877 25.215 14.2764 25.35 14.2952 25.4737C14.3027 25.5375 14.3252 25.5975 14.3327 25.6612C14.3402 25.7175 14.3214 25.7812 14.3739 25.83C14.3477 25.9537 14.4152 26.0625 14.4152 26.1825C14.4152 26.2537 14.4414 26.3212 14.4527 26.3925C14.4639 26.4637 14.4339 26.535 14.4864 26.6062C14.5127 26.64 14.4902 26.7112 14.4939 26.7637C14.4939 26.7825 14.5089 26.8012 14.5202 26.82C14.5389 26.8012 14.5689 26.7825 14.5727 26.76C14.5802 26.67 14.5989 26.58 14.6064 26.49C14.6289 26.295 14.6664 26.1037 14.7002 25.9125C14.7414 25.6687 14.7752 25.425 14.8239 25.185C14.8689 24.9787 14.8914 24.765 14.9439 24.5587C15.0189 24.2737 15.0377 23.9775 15.1389 23.7C15.1652 23.6212 15.1427 23.535 15.1839 23.4525C15.2177 23.3812 15.2139 23.2875 15.2289 23.205C15.2402 23.13 15.2589 23.0512 15.2702 22.9762C15.2814 22.8937 15.3002 22.8075 15.3189 22.7287C15.3489 22.5975 15.3789 22.4662 15.4052 22.335C15.4314 22.2075 15.4464 22.0762 15.4839 21.9562C15.5477 21.7425 15.5402 21.51 15.6414 21.3075C15.6339 21.1275 15.6939 20.9587 15.7314 20.79C15.7764 20.5725 15.7989 20.3475 15.8777 20.1375C15.9152 20.0362 15.9114 19.92 15.9264 19.8112C15.9414 19.71 15.9864 19.665 16.0839 19.665C16.7814 19.665 17.4752 19.665 18.1727 19.665C18.2439 19.665 18.2552 19.68 18.2664 19.7512C18.2964 19.98 18.3414 20.2087 18.3902 20.4375C18.4352 20.6512 18.4614 20.8687 18.5139 21.0825C18.5514 21.2437 18.5627 21.4087 18.6264 21.5662C18.6602 21.6487 18.6077 21.7537 18.6752 21.8325C18.6677 22.0125 18.7314 22.1812 18.7652 22.35C18.8139 22.6012 18.8289 22.86 18.9227 23.1037C18.8927 23.2012 18.9639 23.28 18.9639 23.3737C18.9677 23.4637 18.9864 23.5537 19.0014 23.6437C19.0127 23.7075 19.0277 23.7675 19.0427 23.8312C19.0539 23.8875 19.0727 23.9437 19.0839 24C19.0952 24.0637 19.0689 24.1275 19.1177 24.1912C19.1439 24.225 19.1177 24.2962 19.1252 24.3487C19.1327 24.3975 19.1514 24.4462 19.1627 24.495C19.2114 24.7087 19.2339 24.9262 19.2789 25.14C19.3014 25.26 19.3127 25.3875 19.3277 25.5112C19.3352 25.5862 19.3539 25.665 19.3689 25.74C19.3802 25.8112 19.3352 25.89 19.4102 25.95C19.4177 25.9537 19.4102 25.9762 19.4102 25.9912C19.4102 26.0887 19.4139 26.1862 19.4477 26.2837C19.4739 26.3662 19.4477 26.4637 19.4889 26.5537C19.5152 26.61 19.4927 26.6887 19.4927 26.7562C19.4927 26.7675 19.5039 26.7787 19.5114 26.79C19.5189 26.7787 19.5264 26.7712 19.5339 26.76C19.5489 26.7337 19.5714 26.7037 19.5752 26.6737C19.5939 26.55 19.5977 26.4262 19.6202 26.3025C19.6427 26.175 19.6464 26.0437 19.6877 25.92C19.6952 25.8975 19.6989 25.8675 19.6989 25.8412C19.7064 25.68 19.7364 25.5225 19.7777 25.3612C19.8114 25.2337 19.7889 25.095 19.8264 24.9712C19.8789 24.7912 19.8677 24.6 19.9389 24.4237C19.9727 24.345 19.9277 24.24 19.9839 24.1575C19.9802 23.895 20.1002 23.6512 20.1077 23.3887C20.1902 23.3137 20.1039 23.19 20.1902 23.115C20.1677 23.0212 20.2202 22.935 20.2314 22.845C20.2464 22.7475 20.2389 22.6425 20.2802 22.5562C20.3139 22.4812 20.3139 22.4175 20.3139 22.3462C20.3139 22.2787 20.3477 22.2225 20.3627 22.1587C20.3964 21.99 20.4114 21.8175 20.4714 21.6525C20.4977 21.5737 20.4902 21.4875 20.5127 21.405C20.5427 21.2887 20.5727 21.1687 20.5877 21.045C20.6027 20.9212 20.6327 20.8012 20.6514 20.6812C20.6739 20.5425 20.7077 20.4037 20.7339 20.265C20.7564 20.1337 20.8014 20.0025 20.8089 19.8675C20.8089 19.8562 20.8127 19.8375 20.8202 19.8337C20.8802 19.7887 20.8127 19.695 20.8652 19.6725C20.9214 19.6462 20.9964 19.6612 21.0639 19.6612C21.7052 19.6612 22.3464 19.6612 22.9877 19.6612C23.0702 19.6612 23.0289 19.6837 23.0214 19.7325C22.9952 19.9312 22.9127 20.115 22.8789 20.31C22.8452 20.505 22.7814 20.6925 22.7327 20.8837C22.6877 21.0637 22.6389 21.24 22.5939 21.42C22.5452 21.6112 22.4927 21.8025 22.4477 21.9937C22.4064 22.1625 22.3727 22.3312 22.3239 22.4962C22.2602 22.7025 22.2114 22.9162 22.1589 23.1262C22.1027 23.355 22.0352 23.58 21.9714 23.805C21.9377 23.9325 21.9039 24.0637 21.8702 24.195C21.8177 24.3975 21.7614 24.6 21.7164 24.8062C21.6489 25.0987 21.5664 25.3875 21.4989 25.68C21.4314 25.965 21.3527 26.2462 21.2702 26.5237C21.2177 26.7 21.1802 26.8837 21.1389 27.0637C21.0939 27.2512 21.0527 27.435 20.9927 27.6187C20.9514 27.7387 20.9364 27.8662 20.8952 27.9862C20.8727 28.0537 20.8652 28.125 20.8539 28.1925C20.8389 28.2675 20.8427 28.3575 20.7977 28.4137C20.7452 28.4775 20.8127 28.5712 20.7302 28.6125C20.7527 28.7475 20.6514 28.8562 20.6439 28.9875C20.6364 29.1037 20.5989 29.1262 20.4827 29.1262C19.7927 29.1262 19.1027 29.1262 18.4164 29.1262C18.3714 29.1262 18.3152 29.13 18.2814 29.1075C18.2552 29.085 18.2552 29.025 18.2402 28.9837C18.2139 28.9087 18.2177 28.8187 18.1952 28.7362C18.1652 28.6312 18.1839 28.5075 18.1427 28.41C18.1014 28.3125 18.1427 28.1962 18.0677 28.1137C18.0752 27.9337 18.0189 27.765 17.9777 27.5962C17.9252 27.36 17.8839 27.12 17.8314 26.8837C17.7939 26.715 17.7677 26.5387 17.7339 26.37C17.6814 26.1187 17.6439 25.8675 17.5839 25.6162C17.5464 25.4475 17.5202 25.2712 17.4864 25.1025C17.4489 24.9337 17.4564 24.7575 17.3702 24.6C17.3927 24.4912 17.3364 24.3937 17.3327 24.2887C17.3289 24.2137 17.3064 24.15 17.2914 24.0787C17.2727 24.0112 17.2952 23.9437 17.2577 23.865C17.2202 23.79 17.2427 23.6887 17.2164 23.5987C17.1752 23.4637 17.1827 23.31 17.1677 23.1675C17.1602 23.0962 17.1414 23.0287 17.1264 22.9575C17.1152 22.8937 17.1564 22.8225 17.0927 22.7662C17.0889 22.7625 17.0852 22.755 17.0889 22.7475C17.1152 22.5975 17.0552 22.4587 17.0477 22.3125C17.0439 22.2637 17.0777 22.1925 17.0214 22.1775C16.9989 22.17 17.0364 22.2825 16.9689 22.3125C16.9614 22.3162 16.9689 22.35 16.9689 22.3725C16.9689 22.4587 16.9689 22.5375 16.9314 22.6237C16.9014 22.6912 16.9239 22.7737 16.8939 22.8525C16.8602 22.9387 16.8827 23.0437 16.8489 23.1412C16.8189 23.2237 16.8114 23.3212 16.8077 23.4112C16.8039 23.505 16.7364 23.5837 16.7627 23.6812C16.6764 23.7487 16.7439 23.8537 16.6952 23.94C16.6502 24.0187 16.6539 24.1275 16.6389 24.2212C16.6239 24.3112 16.6239 24.405 16.5939 24.4912C16.5114 24.7537 16.4702 25.0275 16.4064 25.2937C16.3689 25.455 16.3277 25.62 16.3014 25.785C16.2714 25.98 16.2077 26.1712 16.1777 26.3662C16.0952 26.4337 16.1664 26.5387 16.1064 26.625C16.0614 26.6925 16.0839 26.805 16.0577 26.8875C16.0052 27.0337 16.0014 27.1875 15.9527 27.3337C15.9002 27.4912 15.8964 27.6637 15.8552 27.825C15.8064 28.0162 15.7577 28.2112 15.7314 28.4062C15.6452 28.4737 15.7202 28.5787 15.6602 28.665C15.6114 28.7325 15.6264 28.8412 15.6114 28.9312C15.6077 28.9575 15.5927 28.98 15.5852 29.0025C15.5739 29.04 15.5777 29.0925 15.5514 29.1075C15.5252 29.1262 15.4727 29.1187 15.4352 29.1187C14.7189 29.1187 14.0027 29.1187 13.2864 29.1187C13.2227 29.1187 13.2077 29.1075 13.1889 29.0362C13.1327 28.8075 13.0689 28.5787 13.0277 28.3462C12.9939 28.17 12.9414 28.0012 12.9002 27.825C12.8627 27.6712 12.8402 27.51 12.7877 27.36C12.7389 27.2212 12.7089 27.0787 12.6789 26.9362C12.6489 26.7937 12.6189 26.6475 12.5814 26.505C12.5439 26.3625 12.5064 26.22 12.4764 26.0775C12.4464 25.935 12.4164 25.7887 12.3789 25.6462C12.3302 25.455 12.3039 25.2525 12.2477 25.065C12.1952 24.8812 12.1502 24.6975 12.1052 24.5137C12.0564 24.3225 12.0189 24.1275 11.9702 23.9325C11.9252 23.7675 11.8952 23.595 11.8502 23.43C11.8089 23.2687 11.7677 23.1075 11.7302 22.95C11.6852 22.7587 11.6552 22.56 11.5989 22.3687C11.5539 22.2075 11.5239 22.0462 11.4827 21.885C11.4414 21.7237 11.4002 21.5625 11.3627 21.4012C11.3289 21.2587 11.3027 21.1125 11.2727 20.9662C11.2314 20.7787 11.2014 20.5875 11.1339 20.4112C11.1002 20.325 11.1189 20.235 11.0777 20.1487C11.0177 20.0175 11.0252 19.8562 10.9764 19.7212C10.9502 19.6537 10.9652 19.6612 11.0102 19.6612C11.3739 19.6612 11.7452 19.6612 12.1127 19.6612Z" fill="white"/>
<path d="M34.4811 35.5237C34.4811 34.0312 34.4811 32.535 34.4811 31.0425C34.4811 30.9937 34.4811 30.9487 34.4811 30.9C34.4811 30.8625 34.4811 30.8325 34.5336 30.8362C34.6723 30.84 34.8074 30.8025 34.9461 30.7875C35.0849 30.7725 35.2273 30.7837 35.3586 30.75C35.5386 30.7012 35.7223 30.7462 35.8948 30.7125C36.2436 30.645 36.5924 30.6862 36.9411 30.6787C37.2899 30.6712 37.6386 30.6712 37.9836 30.6787C38.1898 30.6825 38.3998 30.6825 38.5986 30.7237C38.7673 30.7575 38.9398 30.7725 39.1086 30.8212C39.2736 30.87 39.4423 30.9 39.6036 30.96C39.8548 31.0575 40.0911 31.1737 40.3086 31.3275C40.5748 31.515 40.7886 31.7512 40.9498 32.04C41.0661 32.2425 41.1261 32.46 41.1973 32.6737C41.2348 32.7862 41.2161 32.9025 41.2611 33.015C41.3023 33.1162 41.2686 33.2437 41.2686 33.36C41.2686 33.4837 41.2911 33.6112 41.2648 33.7275C41.2161 33.9375 41.1523 34.14 41.0698 34.3425C40.9161 34.71 40.6723 35.0062 40.3798 35.265C40.1848 35.4375 39.9523 35.5687 39.7123 35.67C39.6711 35.6887 39.6336 35.7075 39.5924 35.73C39.6298 35.7525 39.6636 35.7825 39.7011 35.8012C40.0799 35.9962 40.3461 36.2925 40.5373 36.6712C40.6348 36.8625 40.7286 37.0575 40.7923 37.26C40.8486 37.4437 40.8898 37.6275 40.9423 37.8112C40.9873 37.9837 41.0436 38.1525 41.0848 38.325C41.1298 38.5125 41.1861 38.6925 41.2311 38.88C41.3173 39.2325 41.4111 39.5812 41.5349 39.9225C41.5461 39.96 41.5498 39.9975 41.5648 40.0312C41.6323 40.2075 41.6361 40.2112 41.4448 40.2112C40.8373 40.2112 40.2299 40.2112 39.6224 40.2112C39.4686 40.2112 39.3973 40.1625 39.3448 40.0162C39.2623 39.765 39.1911 39.5062 39.0936 39.2587C39.0411 39.12 39.0224 38.9775 38.9774 38.835C38.9174 38.655 38.8761 38.4675 38.8273 38.2837C38.8048 38.19 38.7936 38.0925 38.7673 38.0025C38.7148 37.8112 38.6923 37.6162 38.6061 37.4362C38.5723 37.3687 38.5499 37.2975 38.5236 37.2262C38.4674 37.08 38.3736 36.9562 38.2761 36.84C38.1223 36.6525 37.9048 36.5775 37.6686 36.5287C37.3348 36.4575 36.9974 36.51 36.6599 36.4912C36.6186 36.4875 36.5961 36.4987 36.5961 36.5437C36.5998 36.5925 36.5961 36.6375 36.5961 36.6862C36.5961 37.785 36.5961 38.8837 36.5961 39.9825C36.5961 40.0312 36.6074 40.0837 36.5924 40.125C36.5811 40.1625 36.5398 40.1887 36.5061 40.215C36.4948 40.2262 36.4649 40.215 36.4461 40.215C35.8199 40.215 35.1898 40.215 34.5636 40.215C34.4698 40.215 34.4698 40.215 34.4698 40.1137C34.4811 38.58 34.4811 37.0537 34.4811 35.5237ZM36.6074 33.6262C36.6074 34.035 36.6074 34.4437 36.6074 34.8525C36.6074 34.9162 36.6261 34.9312 36.6861 34.9312C36.8623 34.9275 37.0423 34.935 37.2186 34.9275C37.3911 34.92 37.5636 34.95 37.7361 34.8937C37.8336 34.86 37.9386 34.8825 38.0473 34.8562C38.3323 34.785 38.5723 34.665 38.7861 34.4587C39.0298 34.2225 39.1048 33.9225 39.1498 33.6037C39.1686 33.4687 39.1161 33.3412 39.1011 33.2137C39.0861 33.0937 39.0448 32.955 38.9698 32.8612C38.8873 32.76 38.8386 32.61 38.6886 32.5687C38.4861 32.3662 38.2123 32.3362 37.9536 32.2725C37.8336 32.2425 37.7023 32.295 37.5823 32.2312C37.5598 32.22 37.5186 32.22 37.5036 32.2312C37.4211 32.2987 37.3236 32.265 37.2336 32.2687C37.0536 32.28 36.8773 32.2537 36.6973 32.3062C36.6336 32.325 36.6111 32.3287 36.6111 32.4C36.6111 32.805 36.6074 33.2137 36.6074 33.6262Z" fill="white"/>
<path d="M28.879 30.7125C29.2952 30.7125 29.7115 30.7125 30.1277 30.7125C30.1727 30.7125 30.2215 30.7162 30.2627 30.7312C30.3152 30.7537 30.289 30.8175 30.3115 30.8512C30.3865 30.9825 30.3902 31.1325 30.439 31.2712C30.4877 31.4025 30.5252 31.5375 30.5627 31.6725C30.604 31.8225 30.6715 31.9687 30.7127 32.1187C30.7915 32.3925 30.8815 32.6625 30.964 32.9362C31.0615 33.2625 31.1815 33.585 31.2715 33.9112C31.3127 34.0575 31.3615 34.2 31.4102 34.3462C31.4552 34.485 31.4927 34.6275 31.534 34.7662C31.6315 35.0812 31.7252 35.3962 31.8227 35.7112C31.9052 35.985 31.9952 36.255 32.074 36.5287C32.164 36.8512 32.3065 37.1587 32.389 37.4812C32.4527 37.7287 32.5352 37.9687 32.6065 38.2125C32.7002 38.5425 32.824 38.8612 32.914 39.1912C32.9815 39.4425 33.0752 39.6862 33.139 39.9375C33.1577 40.0087 33.1652 40.0875 33.214 40.1512C33.2177 40.1587 33.1952 40.2 33.1802 40.2037C33.1577 40.215 33.1277 40.2075 33.0977 40.2075C32.4152 40.2075 31.7327 40.2075 31.0502 40.2075C30.9227 40.2075 30.9265 40.2037 30.8815 40.0762C30.784 39.8137 30.724 39.54 30.634 39.2775C30.5215 38.94 30.454 38.5912 30.3115 38.265C30.2927 38.2237 30.3077 38.1712 30.2927 38.13C30.2515 38.0025 30.2065 37.8787 30.1652 37.755C30.034 37.755 29.9065 37.755 29.7752 37.755C29.0515 37.755 28.3277 37.755 27.6077 37.755C27.4877 37.755 27.5027 37.7662 27.4352 37.89C27.394 37.9687 27.3865 38.0512 27.3677 38.1262C27.3077 38.34 27.2515 38.5575 27.1915 38.7712C27.1315 38.9775 27.079 39.1875 27.019 39.3937C26.9627 39.5775 26.9102 39.7612 26.869 39.9487C26.854 40.0087 26.8277 40.0687 26.8127 40.1287C26.794 40.1925 26.7602 40.215 26.6852 40.215C26.0102 40.2112 25.3352 40.2112 24.6602 40.2112C24.5852 40.2112 24.5552 40.1812 24.5777 40.1175C24.6865 39.8287 24.7652 39.525 24.8627 39.2325C24.9452 38.9812 25.0277 38.7262 25.099 38.4712C25.1702 38.22 25.2527 37.9725 25.3202 37.7212C25.3877 37.4775 25.4402 37.23 25.5565 37.0012C25.5565 36.8287 25.639 36.6787 25.6915 36.525C25.7402 36.3675 25.789 36.21 25.8377 36.0562C25.894 35.8837 25.9615 35.7075 26.0027 35.5312C26.044 35.3512 26.119 35.1825 26.164 35.0062C26.2502 34.6837 26.3365 34.3575 26.464 34.0462C26.4565 33.8737 26.554 33.7275 26.5952 33.5662C26.6252 33.4537 26.6552 33.3337 26.7002 33.2212C26.7415 33.1125 26.779 32.9925 26.8015 32.8725C26.8202 32.76 26.8802 32.6475 26.914 32.5312C26.9927 32.2575 27.0827 31.9875 27.1652 31.7137C27.2365 31.4737 27.2927 31.2225 27.3977 30.99C27.4127 30.9562 27.4015 30.9112 27.409 30.8737C27.439 30.7537 27.4915 30.7162 27.619 30.7162C28.0315 30.7125 28.4552 30.7125 28.879 30.7125ZM28.789 36.1575C29.1077 36.1575 29.4302 36.1575 29.749 36.1575C29.8465 36.1575 29.8277 36.1575 29.824 36.06C29.8127 35.8687 29.6852 35.7112 29.689 35.52C29.599 35.37 29.584 35.1975 29.5315 35.0325C29.479 34.8712 29.404 34.71 29.4002 34.5337C29.2427 34.2075 29.1865 33.8475 29.0852 33.5025C28.999 33.21 28.924 32.91 28.8677 32.61C28.8565 32.5425 28.8227 32.4787 28.819 32.4037C28.819 32.385 28.7815 32.3662 28.7627 32.3475C28.7552 32.3662 28.7477 32.3812 28.744 32.4C28.7327 32.5537 28.639 32.6962 28.6615 32.8575C28.5977 32.9587 28.6052 33.0787 28.5715 33.1875C28.534 33.3075 28.5302 33.4312 28.4927 33.5437C28.4177 33.765 28.4102 34.0087 28.294 34.2187C28.2377 34.6125 28.0802 34.9762 27.9977 35.3625C27.9452 35.61 27.8477 35.8462 27.7952 36.0975C27.784 36.1537 27.7652 36.1575 27.8252 36.1575C28.1477 36.1575 28.4702 36.1575 28.789 36.1575Z" fill="white"/>
<path d="M27.0111 19.6612C27.4424 19.6612 27.8699 19.6612 28.3011 19.6612C28.4136 19.6612 28.4286 19.6725 28.4624 19.7812C28.5336 20.0062 28.5974 20.2312 28.6686 20.4525C28.7586 20.7375 28.8599 21.015 28.9349 21.3037C29.0099 21.6 29.1224 21.8812 29.2011 22.1775C29.2874 22.4962 29.3924 22.8075 29.4899 23.1225C29.5161 23.2087 29.5311 23.295 29.5649 23.3775C29.5986 23.4675 29.6061 23.5687 29.6511 23.6475C29.6999 23.73 29.6886 23.82 29.7261 23.9025C29.7786 24.015 29.8199 24.1387 29.8499 24.2587C29.9211 24.5362 30.0149 24.8062 30.0974 25.0762C30.1986 25.4025 30.2924 25.7287 30.4049 26.055C30.4461 26.175 30.4761 26.2987 30.5099 26.4225C30.5399 26.5462 30.5924 26.6625 30.6299 26.7825C30.7386 27.1125 30.8286 27.45 30.9411 27.78C30.9786 27.8925 31.0011 28.0162 31.0424 28.1287C31.0836 28.2337 31.1324 28.3462 31.1549 28.4475C31.1886 28.6237 31.2636 28.7887 31.3086 28.9575C31.3124 28.9762 31.3236 28.9912 31.3274 29.01C31.3424 29.1 31.3274 29.1187 31.2411 29.1187C30.6824 29.1187 30.1236 29.1187 29.5649 29.1187C29.4224 29.1187 29.2799 29.1187 29.1336 29.1187C29.0699 29.1187 28.9986 29.0775 28.9986 29.0137C28.9949 28.86 28.9049 28.7362 28.8786 28.5937C28.8524 28.455 28.7811 28.3275 28.7586 28.1925C28.7324 28.0237 28.6574 27.8775 28.6236 27.7125C28.5936 27.5587 28.5074 27.4162 28.4811 27.2625C28.4511 27.0825 28.3499 26.9287 28.3386 26.745C28.3386 26.73 28.3124 26.7075 28.2936 26.7C28.2674 26.6925 28.2411 26.6962 28.2111 26.6962C27.3786 26.6962 26.5461 26.6962 25.7136 26.6962C25.6161 26.6962 25.5749 26.73 25.5561 26.82C25.5111 27.0637 25.4136 27.2962 25.3611 27.5362C25.2899 27.8737 25.1586 28.1962 25.0986 28.5375C25.0799 28.6462 25.0349 28.755 25.0049 28.8637C24.9824 28.9425 24.9786 29.055 24.9261 29.0925C24.8661 29.1337 24.7574 29.1112 24.6711 29.1112C24.0636 29.1112 23.4561 29.1112 22.8486 29.1112C22.7211 29.1112 22.6986 29.0812 22.7399 28.9575C22.7736 28.8487 22.8186 28.7437 22.8486 28.635C22.9236 28.3612 23.0211 28.0912 23.0961 27.8175C23.1636 27.5737 23.2611 27.3375 23.3249 27.0937C23.3736 26.91 23.4449 26.7337 23.4936 26.55C23.5424 26.37 23.6174 26.2012 23.6549 26.025C23.6886 25.86 23.7561 25.71 23.7936 25.5487C23.8274 25.3875 23.9136 25.2375 23.9436 25.08C23.9774 24.915 24.0374 24.7612 24.0824 24.6037C24.1311 24.4462 24.1424 24.2775 24.2399 24.1387C24.2624 23.8687 24.4161 23.6325 24.4461 23.3625C24.5661 23.145 24.6036 22.8937 24.6786 22.6612C24.7536 22.4212 24.8324 22.1775 24.8999 21.9337C24.9636 21.69 25.0536 21.45 25.1211 21.21C25.1736 21.0262 25.2411 20.85 25.2899 20.6662C25.3386 20.4825 25.4174 20.3062 25.4586 20.1225C25.4886 19.9987 25.5336 19.8787 25.5599 19.7512C25.5711 19.7062 25.6049 19.6462 25.6949 19.65C26.1374 19.665 26.5761 19.6612 27.0111 19.6612ZM26.9249 25.1025C27.2436 25.1025 27.5661 25.0987 27.8849 25.1062C27.9674 25.1062 27.9786 25.08 27.9711 25.0125C27.9674 24.9787 27.9749 24.945 27.9636 24.915C27.8661 24.66 27.8024 24.3975 27.7236 24.135C27.6561 23.9025 27.5849 23.6737 27.5211 23.4412C27.4799 23.2875 27.4349 23.1375 27.3899 22.9837C27.3449 22.8187 27.3036 22.6537 27.2549 22.4887C27.1799 22.2525 27.1274 22.0087 27.0674 21.7687C27.0299 21.6075 26.9849 21.45 26.9436 21.2887C26.9399 21.2775 26.9286 21.2662 26.9249 21.2587C26.9174 21.27 26.9061 21.2812 26.9061 21.2925C26.8874 21.3862 26.8761 21.4837 26.8536 21.5775C26.8199 21.705 26.7599 21.8325 26.7486 21.96C26.7299 22.1812 26.6399 22.3837 26.6024 22.5975C26.5611 22.8262 26.4861 23.0512 26.4224 23.2762C26.3474 23.5537 26.2686 23.8275 26.1974 24.105C26.1149 24.4087 26.0399 24.7162 25.9274 25.0125C25.9049 25.0762 25.9311 25.1062 26.0099 25.1062C26.3136 25.1025 26.6211 25.1025 26.9249 25.1025Z" fill="white"/>
<path d="M13.3273 40.3312C13.2035 40.3312 13.0798 40.3387 12.9598 40.3312C12.7685 40.3162 12.5773 40.275 12.3823 40.2937C12.2848 40.2075 12.1573 40.275 12.0448 40.2187C11.951 40.17 11.8198 40.2037 11.7185 40.1662C11.486 40.08 11.2348 40.0612 11.0135 39.9375C10.931 39.8925 10.8335 39.8775 10.7473 39.84C10.7023 39.8212 10.6535 39.7875 10.6235 39.7462C10.5973 39.7087 10.631 39.6637 10.6423 39.6225C10.6985 39.4312 10.721 39.2325 10.7773 39.045C10.856 38.79 10.871 38.5162 10.976 38.2687C10.9873 38.2387 10.9723 38.2012 10.9798 38.1675C10.9948 38.1112 11.0173 38.0587 11.036 38.0062C11.0885 38.0287 11.1373 38.0475 11.1898 38.07C11.4223 38.1675 11.6623 38.2462 11.8985 38.3325C12.071 38.3962 12.2548 38.4225 12.4273 38.4862C12.5173 38.52 12.626 38.475 12.716 38.535C12.8848 38.505 13.0423 38.58 13.211 38.5762C13.376 38.5725 13.5373 38.58 13.7023 38.5725C13.7735 38.5687 13.841 38.5312 13.9085 38.5387C13.9873 38.5425 14.0473 38.5125 14.1148 38.4937C14.1823 38.475 14.246 38.445 14.3098 38.4187C14.3735 38.3925 14.441 38.37 14.4973 38.3325C14.7373 38.1637 14.9098 37.9462 14.906 37.635C14.906 37.5187 14.9135 37.4025 14.876 37.2825C14.816 37.095 14.711 36.9525 14.5723 36.8362C14.426 36.7125 14.2535 36.6225 14.0848 36.5362C13.8598 36.4237 13.6273 36.3262 13.3873 36.2475C12.9898 36.1162 12.611 35.9512 12.2435 35.7525C12.0785 35.6662 11.9398 35.535 11.7823 35.4337C11.5985 35.3137 11.4523 35.1562 11.3098 34.995C11.0698 34.725 10.9048 34.4137 10.811 34.0575C10.7248 33.7462 10.7285 33.4387 10.7435 33.1275C10.7548 32.9062 10.8148 32.6887 10.901 32.4787C10.9723 32.31 11.0435 32.1412 11.1485 31.9875C11.2873 31.7812 11.5835 31.5 11.7823 31.3312C11.981 31.1625 12.2098 31.0462 12.4385 30.9375C12.641 30.84 12.8698 30.7912 13.0873 30.7275C13.2485 30.6787 13.421 30.6675 13.5823 30.6337C13.7585 30.6 13.9273 30.615 14.0998 30.6C14.1448 30.5962 14.186 30.6075 14.2348 30.5737C14.2648 30.5512 14.3323 30.5475 14.3698 30.5625C14.561 30.6375 14.756 30.5925 14.9473 30.5962C15.0373 30.6 15.1123 30.6262 15.1948 30.6412C15.2698 30.6562 15.3523 30.6112 15.4273 30.675C15.461 30.7012 15.5323 30.675 15.5848 30.6825C15.6335 30.69 15.6823 30.7087 15.731 30.7237C16.0273 30.8137 16.3385 30.855 16.616 31.0087C16.706 31.0612 16.751 31.1175 16.7098 31.1887C16.6535 31.2862 16.6648 31.3987 16.616 31.5C16.571 31.59 16.5523 31.6912 16.526 31.7887C16.4773 31.965 16.4323 32.145 16.3873 32.325C16.3685 32.4 16.361 32.4787 16.3385 32.55C16.316 32.6212 16.301 32.715 16.2485 32.7525C16.1923 32.7975 16.1285 32.7112 16.0648 32.6887C15.9448 32.6437 15.8248 32.6062 15.7085 32.565C15.5885 32.5237 15.4685 32.4787 15.3485 32.4487C15.2698 32.43 15.1798 32.4187 15.101 32.4112C14.996 32.4 14.8985 32.355 14.7898 32.3587C14.681 32.3625 14.5723 32.3625 14.4635 32.3587C14.3998 32.355 14.3248 32.3062 14.2798 32.3287C14.2273 32.3587 14.1785 32.3587 14.1298 32.3587C13.7885 32.3437 13.4848 32.4525 13.2035 32.6437C13.031 32.7637 12.9598 32.9325 12.9148 33.12C12.8923 33.21 12.896 33.315 12.9148 33.405C12.9373 33.5137 12.971 33.6262 13.0573 33.7162C13.3235 33.99 13.4548 34.0725 13.8785 34.2525C14.006 34.305 14.126 34.3762 14.2573 34.425C14.4935 34.515 14.7298 34.5975 14.9623 34.695C15.2773 34.8262 15.5848 34.98 15.8698 35.1712C16.046 35.2875 16.2185 35.4112 16.361 35.5575C16.5335 35.73 16.7098 35.9062 16.8035 36.1462C16.8485 36.2625 16.9198 36.3675 16.9685 36.4875C17.0173 36.6075 17.0173 36.7387 17.0848 36.8475C17.0923 37.1137 17.1673 37.3837 17.1223 37.6462C17.0848 37.8787 17.0473 38.1112 16.9648 38.3362C16.8785 38.5762 16.766 38.7862 16.631 38.9775C16.4773 39.195 16.2785 39.3675 16.091 39.5475C15.9335 39.6975 15.731 39.7875 15.5398 39.8887C15.3598 39.9862 15.1648 40.0387 14.981 40.1212C14.8498 40.1812 14.6923 40.185 14.5498 40.215C14.501 40.2262 14.4523 40.245 14.4035 40.2562C14.3548 40.2675 14.2948 40.2337 14.2498 40.2862C14.2385 40.2975 14.2123 40.2937 14.1935 40.2975C13.9048 40.3162 13.6198 40.335 13.331 40.35C13.3273 40.3387 13.3273 40.335 13.3273 40.3312Z" fill="white"/>
<path d="M33.4574 27.1612C33.4574 26.5612 33.4574 25.9612 33.4574 25.3612C33.4574 25.2675 33.4424 25.185 33.3937 25.0987C33.2437 24.8362 33.1087 24.5625 32.9624 24.2962C32.8537 24.0937 32.7449 23.895 32.6362 23.6962C32.4299 23.31 32.2274 22.9237 32.0212 22.5412C31.8187 22.1625 31.6124 21.7837 31.4099 21.405C31.2974 21.1912 31.1999 20.9737 31.0799 20.7637C30.8849 20.43 30.7049 20.0887 30.5287 19.7437C30.4949 19.68 30.5024 19.665 30.5737 19.665C31.2637 19.665 31.9499 19.665 32.6399 19.665C32.7074 19.665 32.7749 19.6687 32.8462 19.665C32.9099 19.6612 32.9437 19.6912 32.9662 19.7475C33.0337 19.9125 33.1049 20.0737 33.1687 20.235C33.2099 20.34 33.2662 20.4375 33.3037 20.55C33.3787 20.7712 33.4912 20.9775 33.5812 21.1912C33.6824 21.4312 33.7799 21.6675 33.8849 21.9037C33.9824 22.1212 34.0687 22.3462 34.1662 22.5637C34.2674 22.7925 34.3574 23.0287 34.4474 23.265C34.4999 23.4075 34.5487 23.55 34.6087 23.6887C34.6124 23.7037 34.6387 23.715 34.6537 23.715C34.6649 23.715 34.6837 23.6925 34.6874 23.6775C34.7624 23.4412 34.8562 23.2162 34.9462 22.9875C35.0362 22.7512 35.1449 22.5225 35.2237 22.2825C35.2537 22.1925 35.2987 22.11 35.3399 22.0237C35.4824 21.7162 35.6062 21.3975 35.7374 21.0825C35.8724 20.7562 36.0224 20.4375 36.1424 20.1037C36.1874 19.98 36.2774 19.8712 36.2887 19.7325C36.2924 19.6912 36.3337 19.6537 36.3899 19.6575C36.3974 19.6575 36.4049 19.6575 36.4087 19.6575C37.1662 19.6575 37.9237 19.6575 38.6812 19.6575C38.6999 19.6575 38.7187 19.6687 38.7374 19.6725C38.7262 19.6875 38.7149 19.7025 38.7037 19.7175C38.6737 19.7587 38.6437 19.8 38.6212 19.845C38.5424 19.9875 38.4712 20.1375 38.3849 20.28C38.3024 20.415 38.2312 20.5575 38.1449 20.6925C38.0549 20.8387 37.9837 20.9925 37.8937 21.1387C37.7774 21.33 37.6762 21.5287 37.5674 21.72C37.4849 21.8625 37.4099 22.0087 37.3274 22.1512C37.1737 22.4137 37.0424 22.6912 36.8699 22.9462C36.7799 23.0775 36.7312 23.2312 36.6487 23.3662C36.5437 23.5425 36.4387 23.7187 36.3412 23.895C36.2549 24.0487 36.1649 24.2025 36.0824 24.36C35.9512 24.6075 35.8087 24.8475 35.6699 25.0912C35.6512 25.125 35.6362 25.1625 35.6362 25.2C35.6324 25.2937 35.6362 25.3912 35.6362 25.485C35.6362 26.625 35.6362 27.7612 35.6362 28.9012C35.6362 28.95 35.6324 28.9987 35.6362 29.0437C35.6437 29.115 35.6062 29.1187 35.5537 29.1187C35.0437 29.1187 34.5299 29.1187 34.0199 29.1187C33.8362 29.1187 33.6562 29.1112 33.4724 29.1037C33.4687 28.9275 33.4687 28.7512 33.4649 28.575C33.4574 28.1025 33.4574 27.63 33.4574 27.1612Z" fill="white"/>
<path d="M46.8036 36.36C46.8036 37.5787 46.8036 38.8012 46.8036 40.02C46.8036 40.0687 46.8074 40.1175 46.7999 40.1625C46.7961 40.1812 46.7736 40.2037 46.7549 40.2075C46.7211 40.215 46.6874 40.2112 46.6536 40.2112C46.0461 40.2112 45.4386 40.2112 44.8311 40.2112C44.7899 40.2112 44.7449 40.2225 44.7111 40.2075C44.6811 40.1962 44.6436 40.1587 44.6361 40.1287C44.6249 40.0762 44.6324 40.02 44.6324 39.9675C44.6324 37.5412 44.6324 35.1112 44.6324 32.685C44.6324 32.52 44.6324 32.52 44.4599 32.52C43.7249 32.52 42.9861 32.52 42.2511 32.52C42.2174 32.52 42.1836 32.52 42.1499 32.52C42.1049 32.5237 42.0936 32.5012 42.0936 32.46C42.0936 31.9012 42.0936 31.3425 42.0936 30.7837C42.0936 30.7237 42.1199 30.7162 42.1649 30.72C42.2061 30.7237 42.2474 30.72 42.2886 30.72C44.5874 30.72 46.8861 30.72 49.1811 30.72C49.2224 30.72 49.2636 30.7237 49.3049 30.72C49.3686 30.7125 49.3836 30.7425 49.3836 30.7987C49.3799 31.2675 49.3836 31.74 49.3836 32.2087C49.3836 32.2837 49.3761 32.3587 49.3874 32.4337C49.3986 32.5162 49.3611 32.52 49.2936 32.52C48.7349 32.5162 48.1761 32.52 47.6174 32.52C47.3774 32.52 47.1411 32.52 46.9011 32.52C46.8074 32.52 46.8074 32.52 46.8074 32.6212C46.8074 33.5812 46.8074 34.545 46.8074 35.505C46.8036 35.7862 46.8036 36.0712 46.8036 36.36Z" fill="white"/>
<path d="M22.5262 36.3975C22.5262 37.5975 22.5262 38.7975 22.5262 40.0012C22.5262 40.0575 22.5299 40.11 22.5224 40.1662C22.5224 40.1812 22.4924 40.2 22.4737 40.2112C22.4549 40.2187 22.4324 40.2112 22.4137 40.2112C21.7799 40.2112 21.1462 40.2112 20.5087 40.2112C20.3962 40.2112 20.3962 40.2112 20.3962 40.0875C20.3962 38.3062 20.3962 36.525 20.3962 34.7437C20.3962 34.0462 20.3962 33.3525 20.3962 32.655C20.3962 32.5125 20.3962 32.5125 20.2612 32.5125C19.5299 32.5125 18.8024 32.5125 18.0712 32.5125C18.0224 32.5125 17.9737 32.5087 17.9287 32.5125C17.8799 32.5162 17.8574 32.505 17.8574 32.4487C17.8612 31.89 17.8574 31.3312 17.8574 30.7687C17.8574 30.7275 17.8687 30.7087 17.9137 30.7087C17.9624 30.7125 18.0074 30.7087 18.0562 30.7087C20.3399 30.7087 22.6274 30.7087 24.9112 30.7087C25.1399 30.7087 25.1437 30.7125 25.1437 30.945C25.1399 31.4025 25.1437 31.86 25.1437 32.3175C25.1437 32.5125 25.1437 32.5125 24.9562 32.5125C24.2249 32.5125 23.4974 32.5125 22.7662 32.5125C22.7174 32.5125 22.6724 32.5125 22.6237 32.5125C22.5599 32.5162 22.5262 32.55 22.5224 32.61C22.5187 32.6587 22.5224 32.7037 22.5224 32.7525C22.5262 33.9712 22.5262 35.1862 22.5262 36.3975Z" fill="white"/>
<path d="M43.4026 27.0225C43.4026 26.9362 43.4026 26.8762 43.4026 26.8125C43.3989 26.5612 43.4701 26.325 43.5414 26.0925C43.6239 25.83 43.7814 25.6087 43.9726 25.41C44.1526 25.2262 44.3439 25.0612 44.5839 24.96C44.8164 24.8625 45.0451 24.7725 45.3039 24.7687C45.3864 24.7687 45.4689 24.7387 45.5514 24.7312C45.6339 24.7237 45.7164 24.7237 45.7951 24.7312C45.8851 24.7387 45.9751 24.765 46.0651 24.7687C46.1589 24.7725 46.2451 24.78 46.3351 24.81C46.4251 24.8437 46.5189 24.8587 46.6051 24.8962C46.6876 24.93 46.7626 24.975 46.8414 25.0162C46.9201 25.0575 47.0101 25.0912 47.0701 25.1512C47.2014 25.2825 47.3476 25.4025 47.4564 25.56C47.5314 25.665 47.5951 25.7737 47.6589 25.8862C47.7451 26.0325 47.7639 26.1975 47.8164 26.3512C47.8351 26.4037 47.8501 26.46 47.8576 26.52C47.8651 26.58 47.8426 26.6475 47.8614 26.7037C47.9026 26.805 47.9026 26.91 47.8951 27.015C47.8914 27.09 47.8651 27.1687 47.8576 27.2437C47.8501 27.3225 47.8726 27.405 47.8164 27.4725C47.8239 27.7012 47.6926 27.885 47.6289 28.0912C47.6064 28.1625 47.5614 28.23 47.5126 28.2862C47.3889 28.4325 47.2576 28.5787 47.1226 28.7175C47.0664 28.7775 46.9951 28.83 46.9201 28.8637C46.7251 28.9537 46.5451 29.0662 46.3314 29.1187C46.2339 29.145 46.1326 29.1562 46.0351 29.1862C45.9189 29.22 45.7876 29.1862 45.6639 29.2275C45.6114 29.2462 45.5326 29.2612 45.4726 29.205C45.4539 29.1862 45.4089 29.1937 45.3751 29.1937C44.9551 29.2012 44.5764 29.0512 44.2426 28.8187C43.9501 28.6125 43.7101 28.3387 43.5789 28.0012C43.5151 27.8362 43.4626 27.6675 43.4251 27.4912C43.3989 27.3262 43.4251 27.1612 43.4026 27.0225ZM44.7976 26.9887C44.8201 27.1162 44.7901 27.2812 44.8314 27.45C44.8989 27.7275 45.0151 27.9675 45.2401 28.14C45.4201 28.2825 45.6489 28.305 45.8551 28.2337C46.0089 28.1812 46.1739 28.1062 46.2601 27.93C46.2976 27.855 46.3276 27.78 46.3614 27.705C46.4776 27.4725 46.5076 27.225 46.5151 26.97C46.5189 26.8275 46.4926 26.6812 46.4776 26.5387C46.4776 26.5312 46.4814 26.5237 46.4776 26.52C46.4026 26.3625 46.3726 26.175 46.2676 26.0362C46.1776 25.9125 46.0764 25.785 45.9076 25.74C45.6714 25.6725 45.4951 25.6875 45.2664 25.8C45.0976 25.8862 44.9851 26.0287 44.9289 26.19C44.8501 26.415 44.7564 26.6437 44.7976 26.8912C44.7976 26.9137 44.7976 26.9325 44.7976 26.9887Z" fill="white"/>
<path d="M40.661 27.0262C40.661 26.6137 40.661 26.28 40.661 25.9462C40.661 25.815 40.6422 25.8 40.5072 25.7962C40.391 25.7962 40.2747 25.7962 40.1585 25.7962C40.1135 25.7962 40.0835 25.7925 40.0835 25.7325C40.0872 25.4475 40.0872 25.1587 40.0835 24.8737C40.0835 24.8325 40.091 24.8137 40.1397 24.8137C40.271 24.8175 40.3985 24.8175 40.5297 24.8137C40.631 24.8137 40.6572 24.7837 40.6572 24.6825C40.6572 24.4425 40.6572 24.2062 40.6572 23.9662C40.6572 23.9062 40.6535 23.88 40.7397 23.865C40.946 23.835 41.1485 23.7637 41.3547 23.73C41.5272 23.7 41.6885 23.625 41.8647 23.625C41.966 23.625 41.966 23.625 41.966 23.7187C41.966 24.0112 41.966 24.3037 41.966 24.6C41.966 24.6412 41.9697 24.6825 41.966 24.7237C41.9585 24.7912 41.9697 24.8175 42.0522 24.8175C42.3185 24.81 42.5847 24.8175 42.851 24.8137C42.8922 24.8137 42.911 24.825 42.911 24.87C42.911 25.155 42.9072 25.4437 42.911 25.7287C42.911 25.7812 42.896 25.7962 42.8435 25.7962C42.6185 25.7925 42.3935 25.7962 42.1685 25.7962C42.1272 25.7962 42.0822 25.785 42.0485 25.8C42.0185 25.8112 41.9885 25.8487 41.9735 25.8825C41.9622 25.9125 41.9697 25.95 41.9697 25.9837C41.9697 26.5162 41.9735 27.0487 41.9697 27.5812C41.9697 27.7387 42.041 27.8662 42.1047 27.9975C42.1535 28.095 42.281 28.095 42.3747 28.1287C42.4497 28.155 42.5472 28.1587 42.6297 28.1137C42.6522 28.1025 42.6785 28.0987 42.7047 28.095C42.8735 28.0837 42.8735 28.0837 42.8735 28.245C42.8735 28.4962 42.8735 28.7512 42.8735 29.0025C42.8735 29.0925 42.8285 29.1412 42.7497 29.16C42.401 29.2275 42.0485 29.2312 41.7035 29.19C41.3735 29.1487 41.0885 28.9837 40.8935 28.6837C40.7922 28.5262 40.7397 28.365 40.706 28.1887C40.616 27.7725 40.691 27.36 40.661 27.0262Z" fill="white"/>
</svg>
