<?xml version="1.0" encoding="utf-8"?>
<!-- Generator: Adobe Illustrator 16.0.0, SVG Export Plug-In . SVG Version: 6.00 Build 0)  -->
<!DOCTYPE svg PUBLIC "-//W3C//DTD SVG 1.1//EN" "http://www.w3.org/Graphics/SVG/1.1/DTD/svg11.dtd">
<svg version="1.1" id="Слой_1" xmlns="http://www.w3.org/2000/svg" xmlns:xlink="http://www.w3.org/1999/xlink" x="0px" y="0px"
	 width="134px" height="56px" viewBox="49 21 134 56" enable-background="new 49 21 134 56" xml:space="preserve">
<path d="M158.365,40.785L158.365,40.785h-6.275v0.059c-0.575,1.099-1.209,2.371-1.957,3.586l0,0
	c-0.747,1.273-1.495,2.604-2.303,3.934c-1.323,2.257-2.705,4.629-4.027,6.886l-7.888-14.405v-0.059h-25.844h-4.087v35.638h5.354
	V45.934h9.67v30.489h5.123V45.934h6.389c0.806,1.331,1.556,2.662,2.303,3.993c0.979,1.619,1.9,3.297,2.82,4.975l0.978,1.735
	l0.749,1.215c0.634,1.042,1.323,2.141,2.016,3.182v15.39h5.064V61.092l5.987-10.298c1.267-2.198,2.589-4.397,3.913-6.537
	l2.016-3.355l0.057-0.116C158.479,40.785,158.365,40.785,158.365,40.785 M100.746,42.463L100.746,42.463
	c-3.107-1.272-5.524-2.256-8.807-2.256c-2.531,0-5.18,0.578-7.655,1.678c-2.475,1.1-4.662,2.661-6.332,4.512
	c-2.878,3.183-4.432,7.521-4.432,12.266c0,3.355,0.748,6.421,2.245,9.14c0.979,1.793,2.359,3.472,3.856,4.802
	C84.227,76.423,89.234,77,91.824,77c4.145,0,6.851-1.272,8.463-2.082l0.402-0.174h0.057v-0.059v-6.073l-0.114,0.058
	c-2.993,2.024-5.181,3.298-8.692,3.298c-2.417,0-4.949-0.694-7.079-1.967c-2.188-1.331-3.915-3.183-4.894-5.381
	c-1.15-2.661-1.266-5.206-1.266-5.901c0-1.446,0.23-5.206,2.533-8.215c2.359-3.123,6.504-5.09,10.59-5.09
	c3.684,0,6.044,1.504,7.023,2.141c0.459,0.289,0.806,0.521,1.208,0.809l0.576,0.406l0.114,0.057v-0.115l0.059-6.132v-0.058h-0.059
	V42.463z M56.886,31.009L56.886,31.009c-1.497,0-2.647-1.216-2.647-2.719c0-1.505,1.208-2.719,2.647-2.719
	c1.497,0,2.647,1.099,2.647,2.719C59.533,29.793,58.383,31.009,56.886,31.009 M61.26,28.348L61.26,28.348v-0.115
	c0-0.811-0.115-1.563-0.518-2.256c-0.403-0.695-0.921-1.216-1.611-1.621c-0.23-0.115-0.403-0.173-0.633-0.289l0,0
	c-0.115-0.058-0.174-0.058-0.289-0.058c-0.402-0.116-0.805-0.173-1.208-0.173c-0.173,0-0.288,0-0.46,0
	c-0.979,0.057-1.842,0.463-2.591,1.156c-1.036,0.867-1.497,1.967-1.497,3.24c0,1.215,0.403,2.256,1.268,3.123
	c0.863,0.868,1.898,1.273,3.107,1.273c0.173,0,0.403,0,0.576-0.059c0,0,0,0,0.057,0c0.173,0,0.346-0.058,0.519-0.115
	c0.058,0,0.058,0,0.115,0c0.173-0.059,0.288-0.115,0.46-0.174h0.058c0.173-0.058,0.345-0.173,0.519-0.23c0,0,0.058,0,0.058-0.059
	c0.115-0.058,0.288-0.174,0.402-0.289l0,0v0.693h1.727v-4.049H61.26z M169.474,31.009L169.474,31.009
	c-1.497,0-2.648-1.216-2.648-2.719c0-1.505,1.209-2.719,2.648-2.719c1.497,0,2.646,1.099,2.646,2.719
	C172.12,29.793,170.912,31.009,169.474,31.009 M173.848,28.348L173.848,28.348c0-0.058,0-0.058,0-0.115
	c0-0.811-0.116-1.563-0.519-2.256c-0.402-0.695-0.919-1.216-1.61-1.621c-0.173-0.115-0.403-0.173-0.634-0.289l0,0
	c-0.114-0.058-0.173-0.058-0.287-0.058c-0.403-0.116-0.806-0.173-1.21-0.173c-0.172,0-0.286,0-0.46,0
	c-0.979,0.057-1.843,0.463-2.59,1.156c-0.979,0.867-1.439,1.967-1.439,3.24c0,1.215,0.403,2.256,1.267,3.123
	c0.863,0.868,1.899,1.273,3.108,1.273c0.172,0,0.403,0,0.576-0.059c0,0,0,0,0.058,0c0.173,0,0.345-0.058,0.518-0.115
	c0.057,0,0.057,0,0.115,0c0.172-0.059,0.287-0.115,0.46-0.174c0,0,0,0,0.058,0c0.173-0.058,0.345-0.173,0.518-0.23
	c0,0,0.058,0,0.058-0.059c0.115-0.058,0.287-0.174,0.404-0.289l0,0v0.693h1.726L173.848,28.348L173.848,28.348z M69.837,28.232
	L69.837,28.232c0,1.677-1.209,2.719-2.647,2.719c-1.496,0-2.648-1.215-2.648-2.719s1.209-2.719,2.648-2.719
	C68.686,25.455,69.837,26.729,69.837,28.232 M71.621,28.116L71.621,28.116V21h-1.727v3.703l0,0c-0.116-0.115-0.23-0.174-0.403-0.232
	c0,0-0.058,0-0.058-0.057c-0.172-0.115-0.346-0.174-0.518-0.231h-0.057c-0.174-0.058-0.289-0.116-0.461-0.174
	c-0.059,0-0.059,0-0.115,0c-0.173-0.058-0.346-0.058-0.518-0.116c0,0,0,0-0.059,0c-0.173,0-0.402-0.057-0.575-0.057
	c-1.209,0-2.245,0.404-3.108,1.272s-1.267,1.908-1.267,3.124c0,1.33,0.46,2.371,1.438,3.239c0.749,0.694,1.612,1.041,2.592,1.157
	c0.172,0,0.286,0,0.459,0c0.404,0,0.864-0.059,1.209-0.174c0.115,0,0.173-0.059,0.289-0.059l0,0
	c0.229-0.057,0.401-0.173,0.633-0.288c0.69-0.405,1.266-0.927,1.611-1.62c0.402-0.695,0.518-1.504,0.518-2.256v-0.116H71.621z
	 M88.659,27.191L88.659,27.191l2.13,2.602c-0.863,0.869-1.496,1.216-2.188,1.216c-0.921,0-1.784-0.868-1.784-1.735
	C86.875,28.637,87.277,28.174,88.659,27.191 M89.062,24.935L89.062,24.935L89.062,24.935L89.062,24.935L89.062,24.935l-0.058-0.058
	c-0.748-0.926-0.805-1.041-0.805-1.447c0-0.52,0.46-0.926,0.979-0.926c0.633,0,1.035,0.348,1.035,0.926
	C90.271,23.951,90.098,24.125,89.062,24.935 M95.164,32.34L95.164,32.34l-2.072-2.488c0.114-0.115,0.172-0.174,0.287-0.289
	l0.346-0.404l0.114-0.174c0.288-0.289,0.346-0.406,0.576-0.694v-0.058l-0.058-0.059l-1.036-1.041l-0.058-0.059l-0.058,0.059
	l-0.114,0.174c-0.174,0.231-0.23,0.289-0.576,0.694l-0.403,0.462c-0.058,0.059-0.058,0.059-0.058,0.115l-1.957-2.313
	c1.382-1.042,1.899-1.736,1.899-2.719c0-1.447-1.151-2.488-2.704-2.488c-1.612,0-2.706,1.041-2.706,2.604
	c0,0.752,0.346,1.504,1.094,2.314c0,0-0.058,0-0.058,0.057c0,0-0.058,0-0.058,0.059c-1.094,0.752-1.151,0.752-1.438,1.1
	l-0.115-0.059c-0.576,0.578-0.863,1.389-0.863,2.141c0,0.926,0.346,1.793,1.035,2.43c0.634,0.637,1.555,0.982,2.533,0.982
	c1.15,0,2.188-0.52,3.223-1.561l1.094,1.271l0,0h2.246L95.164,32.34z M49,32.396L49,32.396h1.727V21H49V32.396z M79.449,24.009
	L79.449,24.009l-0.115,0.231l-2.245,5.148l-2.302-5.148l-0.115-0.231H72.83l0.23,0.521l3.107,6.942l-1.438,3.239l-0.403,0.984h1.9
	L76.514,35l4.604-10.471l0.231-0.521H79.449z M136.088,32.396L136.088,32.396h1.728V21h-1.728V32.396z M114.504,25.455
	L114.504,25.455c1.266,0,2.187,0.867,2.531,2.025h-5.063C112.258,26.322,113.237,25.455,114.504,25.455 M114.504,30.951
	L114.504,30.951c-1.209,0-2.188-0.811-2.532-1.909h5.063l0,0h1.67c0.059-0.231,0.115-0.464,0.115-0.752c0-0.058,0-0.058,0-0.116
	c0-2.43-1.842-4.454-4.26-4.454c-2.475,0-4.432,1.966-4.432,4.454c0,2.43,1.957,4.396,4.375,4.396c1.496,0,2.936-0.693,3.741-1.851
	l-1.497-0.868C116.23,30.604,115.425,30.951,114.504,30.951 M144.549,25.455L144.549,25.455c1.267,0,2.188,0.867,2.533,2.025h-5.064
	C142.247,26.322,143.284,25.455,144.549,25.455 M144.549,30.951L144.549,30.951c-1.208,0-2.186-0.811-2.531-1.909h5.064l0,0h1.67
	c0.059-0.231,0.115-0.464,0.115-0.752c0-0.058,0-0.058,0-0.116c0-2.43-1.842-4.454-4.26-4.454c-2.475,0-4.432,1.966-4.432,4.454
	c0,2.43,1.957,4.396,4.373,4.396c1.498,0,2.937-0.693,3.742-1.851l-1.496-0.868C146.277,30.604,145.413,30.951,144.549,30.951
	 M163.257,27.248L163.257,27.248c0-1.908-1.555-3.471-3.512-3.471c-1.035,0-1.957,0.463-2.647,1.157
	c-0.634-0.752-1.61-1.157-2.646-1.157c-1.958,0-3.512,1.563-3.512,3.471l0,0l0,0v5.148h1.15l0,0h0.576v-2.66v-2.314
	c0-0.058,0-0.058,0-0.115v-0.059v-0.057l0,0c0.058-0.926,0.807-1.62,1.727-1.62c0.978,0,1.727,0.751,1.784,1.677l0,0
	c0,0,0,0,0,0.059v5.09h1.151l0,0h0.577v-2.14l0,0v-2.835c0-0.058,0-0.058,0-0.115v-0.059v-0.057c0.058-0.926,0.805-1.62,1.726-1.62
	c0.979,0,1.784,0.751,1.784,1.735v5.148h1.784L163.257,27.248L163.257,27.248 M183,27.248L183,27.248
	c0-1.908-1.554-3.471-3.511-3.471s-3.511,1.563-3.511,3.471c0,0,0,0,0,0.059v5.09h1.151l0,0h0.574v-2.14l0,0v-2.835
	c0-0.058,0-0.058,0-0.115v-0.059v-0.057c0.058-0.926,0.806-1.62,1.728-1.62c0.979,0,1.784,0.751,1.784,1.735v5.148H183V27.248
	L183,27.248 M127.857,27.248L127.857,27.248c0-1.908-1.554-3.471-3.512-3.471c-1.956,0-3.511,1.563-3.511,3.471c0,0,0,0,0,0.059
	v5.09h1.152l0,0h0.575v-2.14l0,0v-2.835c0-0.058,0-0.058,0-0.115v-0.059v-0.057c0.057-0.926,0.805-1.62,1.726-1.62
	c0.979,0,1.785,0.751,1.785,1.735l0,0v5.148h1.784V27.248L127.857,27.248z M134.131,24.009L134.131,24.009h-1.381V21h-1.727v3.009
	h-1.382v1.62h1.382v6.826h1.727v-6.884h1.381V24.009z M103.74,31.009L103.74,31.009c-1.496,0-2.647-1.216-2.647-2.719
	c0-1.505,1.208-2.719,2.647-2.719c1.496,0,2.647,1.099,2.647,2.719C106.445,29.793,105.236,31.009,103.74,31.009 M108.172,28.348
	v-0.115c0-0.811-0.115-1.563-0.518-2.256c-0.403-0.695-0.922-1.216-1.611-1.621c-0.174-0.115-0.404-0.173-0.634-0.289l0,0
	c-0.115-0.058-0.173-0.058-0.288-0.058c-0.402-0.116-0.806-0.173-1.209-0.173c-0.172,0-0.287,0-0.461,0
	c-0.978,0.057-1.841,0.463-2.59,1.156c-0.979,0.867-1.438,1.967-1.438,3.24c0,1.215,0.402,2.256,1.267,3.123
	c0.863,0.868,1.898,1.273,3.108,1.273c0.173,0,0.402,0,0.575-0.059c0,0,0,0,0.058,0c0.172,0,0.345-0.058,0.519-0.115
	c0.057,0,0.057,0,0.114,0c0.173-0.059,0.288-0.115,0.46-0.174c0,0,0,0,0.059,0c0.172-0.058,0.346-0.173,0.518-0.23
	c0,0,0.059,0,0.059-0.059c0.114-0.058,0.229-0.174,0.402-0.231l0.115-0.115v0.751c0,0.174,0,0.406-0.115,0.695
	c-0.173,0.521-0.749,1.215-2.072,1.33c-0.058,0-0.115,0-0.173,0s-0.058,0-0.115,0l0,0l0,0c-0.863,0-1.727-0.404-2.188-1.041
	l-1.497,0.867c0.807,1.157,2.246,1.852,3.742,1.852c1.036,0,2.015-0.289,2.878-0.867c0.863-0.637,1.209-1.505,1.267-2.72l0,0v-4.165
	H108.172z"/>
</svg>
